<?xml version="1.0" encoding="utf-8"?>
<!-- Generator: Adobe Illustrator 16.0.0, SVG Export Plug-In . SVG Version: 6.00 Build 0)  -->
<!DOCTYPE svg PUBLIC "-//W3C//DTD SVG 1.1//EN" "http://www.w3.org/Graphics/SVG/1.1/DTD/svg11.dtd">
<svg version="1.1" id="Layer_1" xmlns="http://www.w3.org/2000/svg" xmlns:xlink="http://www.w3.org/1999/xlink" x="0px" y="0px"
	 width="415px" height="415px" viewBox="0 0 415 415" enable-background="new 0 0 415 415" xml:space="preserve">
<circle fill="none" cx="208" cy="207.5" r="207.5"/>
<line fill="none" x1="152.13" y1="119.899" x2="173" y2="63"/>
<path fill="none" stroke="#000000" stroke-miterlimit="10" d="M173,63"/>
<path fill="none" stroke="#000000" stroke-miterlimit="10" d="M152.13,119.899"/>
<line fill="none" stroke="#000000" stroke-miterlimit="10" x1="202.5" y1="63.5" x2="173" y2="63"/>
<rect x="136.5" y="161.5" fill="#FFFFFF" stroke="#000000" stroke-miterlimit="10" width="78" height="19"/>
<g>
	<g id="XMLID_1_">
		<g>
			<polygon fill="#8CD8FF" points="83.611,252.341 160.525,38.052 160.945,38 200.946,38 200.997,38.052 124.022,252.341 
				84.021,252.341 			"/>
		</g>
		<g>
			<line fill="none" stroke="#000000" stroke-miterlimit="10" x1="160.525" y1="38.052" x2="83.611" y2="252.341"/>
			<line fill="none" stroke="#000000" stroke-miterlimit="10" x1="83.611" y1="252.341" x2="83.468" y2="252.74"/>
			<line fill="none" stroke="#000000" stroke-miterlimit="10" x1="84.021" y1="252.341" x2="124.022" y2="252.341"/>
			<polyline fill="none" stroke="#000000" stroke-miterlimit="10" points="84.021,252.341 83.611,252.341 82.996,252.341 			"/>
			<line fill="none" stroke="#000000" stroke-miterlimit="10" x1="200.997" y1="38.052" x2="124.022" y2="252.341"/>
			<line fill="none" stroke="#000000" stroke-miterlimit="10" x1="160.945" y1="38" x2="200.946" y2="38"/>
		</g>
	</g>
</g>
<polygon fill="#FFFFFF" stroke="#000000" stroke-width="2" stroke-miterlimit="10" points="332.746,365.29 262.54,364.628 
	179.544,97.784 200.95,38 231.207,38.525 "/>
<polygon fill="#8CD8FF" stroke="#000000" stroke-width="2" stroke-miterlimit="10" points="237.5,308 124,262 83,262 
	256.146,366.79 "/>
</svg>
