<?xml version="1.0" encoding="utf-8"?>
<!-- Generator: Adobe Illustrator 16.0.0, SVG Export Plug-In . SVG Version: 6.00 Build 0)  -->
<!DOCTYPE svg PUBLIC "-//W3C//DTD SVG 1.1//EN" "http://www.w3.org/Graphics/SVG/1.1/DTD/svg11.dtd">
<svg version="1.1" id="Layer_1" xmlns="http://www.w3.org/2000/svg" xmlns:xlink="http://www.w3.org/1999/xlink" x="0px" y="0px"
	 width="415px" height="415px" viewBox="0 0 415 415" enable-background="new 0 0 415 415" xml:space="preserve">
<circle fill="#545454" cx="208" cy="207.5" r="207.5"/>
<line fill="none" stroke="#000000" stroke-miterlimit="10" x1="233" y1="374.5" x2="301" y2="374.5"/>
<g id="XMLID_2_">
	<g>
		<polygon fill="#8CD8FF" points="267.44,267.52 239.74,180.5 351.5,180.5 383.09,267.5 267.5,267.5 		"/>
	</g>
	<g>
		<polyline fill="none" stroke="#000000" stroke-miterlimit="10" points="202.5,63.5 239.74,180.5 267.44,267.52 301.5,374.5 		"/>
		<polyline fill="none" stroke="#000000" stroke-width="0" stroke-linecap="round" stroke-linejoin="round" points="239.5,180.5 
			239.74,180.5 351.5,180.5 		"/>
	</g>
</g>
<line fill="none" x1="152.13" y1="119.899" x2="173" y2="63"/>
<path fill="none" stroke="#000000" stroke-miterlimit="10" d="M173,63"/>
<path fill="none" stroke="#000000" stroke-miterlimit="10" d="M152.13,119.899"/>
<line fill="none" stroke="#000000" stroke-miterlimit="10" x1="202.5" y1="63.5" x2="173" y2="63"/>
<rect x="111" y="180" fill="#FFFFFF" width="76" height="18"/>
<g>
	<g id="XMLID_1_">
		<g>
			<polygon fill="#8CD8FF" points="59,267 58.6,267 133.59,63.05 134,63 173,63 173.05,63.05 98,267 			"/>
		</g>
		<g>
			<line fill="none" stroke="#000000" stroke-miterlimit="10" x1="133.59" y1="63.05" x2="58.6" y2="267"/>
			<line fill="none" stroke="#000000" stroke-miterlimit="10" x1="58.6" y1="267" x2="58.46" y2="267.38"/>
			<line fill="none" stroke="#000000" stroke-miterlimit="10" x1="59" y1="267" x2="98" y2="267"/>
			<polyline fill="none" stroke="#000000" stroke-miterlimit="10" points="59,267 58.6,267 58,267 			"/>
			<line fill="none" stroke="#000000" stroke-miterlimit="10" x1="173.05" y1="63.05" x2="98" y2="267"/>
			<line fill="none" stroke="#000000" stroke-miterlimit="10" x1="134" y1="63" x2="173" y2="63"/>
		</g>
	</g>
</g>
<polygon fill="#FFFFFF" stroke="#000000" stroke-miterlimit="10" points="301.5,374.5 233.05,373.87 152.13,119.899 173,63 
	202.5,63.5 "/>
</svg>
